{
	"patcher" : 	{
		"fileversion" : 1,
		"appversion" : 		{
			"major" : 8,
			"minor" : 5,
			"revision" : 2,
			"architecture" : "x64",
			"modernui" : 1
		}
,
		"classnamespace" : "rnbo",
		"rect" : [ 251.0, 100.0, 802.0, 885.0 ],
		"bglocked" : 0,
		"openinpresentation" : 0,
		"default_fontsize" : 12.0,
		"default_fontface" : 0,
		"default_fontname" : "Lato",
		"gridonopen" : 1,
		"gridsize" : [ 15.0, 15.0 ],
		"gridsnaponopen" : 1,
		"objectsnaponopen" : 1,
		"statusbarvisible" : 2,
		"toolbarvisible" : 1,
		"lefttoolbarpinned" : 0,
		"toptoolbarpinned" : 0,
		"righttoolbarpinned" : 0,
		"bottomtoolbarpinned" : 0,
		"toolbars_unpinned_last_save" : 0,
		"tallnewobj" : 0,
		"boxanimatetime" : 200,
		"enablehscroll" : 1,
		"enablevscroll" : 1,
		"devicewidth" : 0.0,
		"description" : "",
		"digest" : "",
		"tags" : "",
		"style" : "",
		"subpatcher_template" : "",
		"assistshowspatchername" : 0,
		"title" : "pco_reset_mixer",
		"boxes" : [ 			{
				"box" : 				{
					"id" : "obj-5",
					"maxclass" : "newobj",
					"numinlets" : 1,
					"numoutlets" : 0,
					"patching_rect" : [ 675.703341354926124, 427.0, 142.0, 23.0 ],
					"rnbo_classname" : "send~",
					"rnbo_serial" : 1,
					"rnbo_uniqueid" : "send~_obj-5",
					"text" : "send~ from_reset_mixer4"
				}

			}
, 			{
				"box" : 				{
					"id" : "obj-4",
					"maxclass" : "newobj",
					"numinlets" : 1,
					"numoutlets" : 0,
					"patching_rect" : [ 516.0, 427.0, 142.0, 23.0 ],
					"rnbo_classname" : "send~",
					"rnbo_serial" : 2,
					"rnbo_uniqueid" : "send~_obj-4",
					"text" : "send~ from_reset_mixer3"
				}

			}
, 			{
				"box" : 				{
					"id" : "obj-76",
					"maxclass" : "newobj",
					"numinlets" : 1,
					"numoutlets" : 0,
					"patching_rect" : [ 354.633929620186336, 427.0, 142.0, 23.0 ],
					"rnbo_classname" : "send~",
					"rnbo_serial" : 3,
					"rnbo_uniqueid" : "send~_obj-76",
					"text" : "send~ from_reset_mixer2"
				}

			}
, 			{
				"box" : 				{
					"id" : "obj-57",
					"maxclass" : "newobj",
					"numinlets" : 1,
					"numoutlets" : 0,
					"patching_rect" : [ 196.855327963829041, 427.0, 142.0, 23.0 ],
					"rnbo_classname" : "send~",
					"rnbo_serial" : 4,
					"rnbo_uniqueid" : "send~_obj-57",
					"text" : "send~ from_reset_mixer1"
				}

			}
, 			{
				"box" : 				{
					"id" : "obj-2",
					"maxclass" : "newobj",
					"numinlets" : 0,
					"numoutlets" : 1,
					"outlettype" : [ "signal" ],
					"patching_rect" : [ 676.203341354926124, 193.0, 141.0, 23.0 ],
					"rnbo_classname" : "receive~",
					"rnbo_serial" : 1,
					"rnbo_uniqueid" : "receive~_obj-2",
					"text" : "receive~ to_reset_mixer4"
				}

			}
, 			{
				"box" : 				{
					"id" : "obj-60",
					"maxclass" : "newobj",
					"numinlets" : 0,
					"numoutlets" : 1,
					"outlettype" : [ "signal" ],
					"patching_rect" : [ 516.5, 193.0, 141.0, 23.0 ],
					"rnbo_classname" : "receive~",
					"rnbo_serial" : 2,
					"rnbo_uniqueid" : "receive~_obj-60",
					"text" : "receive~ to_reset_mixer3"
				}

			}
, 			{
				"box" : 				{
					"id" : "obj-3",
					"maxclass" : "newobj",
					"numinlets" : 0,
					"numoutlets" : 1,
					"outlettype" : [ "signal" ],
					"patching_rect" : [ 354.633929620186336, 193.0, 141.0, 23.0 ],
					"rnbo_classname" : "receive~",
					"rnbo_serial" : 3,
					"rnbo_uniqueid" : "receive~_obj-3",
					"text" : "receive~ to_reset_mixer2"
				}

			}
, 			{
				"box" : 				{
					"id" : "obj-56",
					"maxclass" : "newobj",
					"numinlets" : 0,
					"numoutlets" : 1,
					"outlettype" : [ "signal" ],
					"patching_rect" : [ 193.849223752816442, 193.0, 141.0, 23.0 ],
					"rnbo_classname" : "receive~",
					"rnbo_serial" : 4,
					"rnbo_uniqueid" : "receive~_obj-56",
					"text" : "receive~ to_reset_mixer1"
				}

			}
, 			{
				"box" : 				{
					"id" : "obj-65",
					"maxclass" : "newobj",
					"numinlets" : 1,
					"numoutlets" : 1,
					"outlettype" : [ "" ],
					"patching_rect" : [ 69.01022857427597, 54.0, 56.0, 23.0 ],
					"rnbo_classname" : "loadbang",
					"rnbo_serial" : 1,
					"rnbo_uniqueid" : "loadbang_obj-65",
					"text" : "loadbang"
				}

			}
, 			{
				"box" : 				{
					"id" : "obj-61",
					"maxclass" : "newobj",
					"numinlets" : 2,
					"numoutlets" : 1,
					"outlettype" : [ "" ],
					"patching_rect" : [ 94.01022857427597, 153.0, 32.0, 23.0 ],
					"rnbo_classname" : "int",
					"rnbo_serial" : 1,
					"rnbo_uniqueid" : "int_obj-61",
					"text" : "int 3"
				}

			}
, 			{
				"box" : 				{
					"id" : "obj-58",
					"maxclass" : "newobj",
					"numinlets" : 2,
					"numoutlets" : 1,
					"outlettype" : [ "" ],
					"patching_rect" : [ 69.01022857427597, 183.0, 44.0, 23.0 ],
					"rnbo_classname" : "list.iter",
					"rnbo_serial" : 1,
					"rnbo_uniqueid" : "list.iter_obj-58",
					"text" : "list.iter"
				}

			}
, 			{
				"box" : 				{
					"id" : "obj-21",
					"maxclass" : "newobj",
					"numinlets" : 3,
					"numoutlets" : 1,
					"outlettype" : [ "signal" ],
					"patching_rect" : [ 262.355327963829041, 354.0, 59.0, 23.0 ],
					"rnbo_classname" : "clip~",
					"rnbo_serial" : 1,
					"rnbo_uniqueid" : "clip~_obj-21",
					"text" : "clip~ 0. 1."
				}

			}
, 			{
				"box" : 				{
					"id" : "obj-19",
					"maxclass" : "newobj",
					"numinlets" : 3,
					"numoutlets" : 1,
					"outlettype" : [ "signal" ],
					"patching_rect" : [ 196.855327963829041, 354.0, 59.0, 23.0 ],
					"rnbo_classname" : "clip~",
					"rnbo_serial" : 2,
					"rnbo_uniqueid" : "clip~_obj-19",
					"text" : "clip~ 0. 1."
				}

			}
, 			{
				"box" : 				{
					"id" : "obj-17",
					"maxclass" : "newobj",
					"numinlets" : 3,
					"numoutlets" : 1,
					"outlettype" : [ "signal" ],
					"patching_rect" : [ 327.855327963829041, 354.0, 59.0, 23.0 ],
					"rnbo_classname" : "clip~",
					"rnbo_serial" : 3,
					"rnbo_uniqueid" : "clip~_obj-17",
					"text" : "clip~ 0. 1."
				}

			}
, 			{
				"box" : 				{
					"id" : "obj-6",
					"maxclass" : "newobj",
					"numinlets" : 3,
					"numoutlets" : 1,
					"outlettype" : [ "signal" ],
					"patching_rect" : [ 393.355327963829041, 354.0, 59.0, 23.0 ],
					"rnbo_classname" : "clip~",
					"rnbo_serial" : 4,
					"rnbo_uniqueid" : "clip~_obj-6",
					"text" : "clip~ 0. 1."
				}

			}
, 			{
				"box" : 				{
					"id" : "obj-13",
					"maxclass" : "newobj",
					"numinlets" : 2,
					"numoutlets" : 1,
					"outlettype" : [ "" ],
					"patching_rect" : [ 69.01022857427597, 122.0, 525.0, 23.0 ],
					"rnbo_classname" : "list.reg",
					"rnbo_serial" : 1,
					"rnbo_uniqueid" : "list.reg_obj-13",
					"text" : "list.reg 0 0 0 0 1 1 0 2 1 0 3 1 1 0 1 1 1 0 1 2 1 1 3 1 2 0 1 2 1 1 2 2 0 2 3 1 3 0 1 3 1 1 3 2 1 3 3 0"
				}

			}
, 			{
				"box" : 				{
					"id" : "obj-1",
					"maxclass" : "newobj",
					"numinlets" : 4,
					"numoutlets" : 4,
					"outlettype" : [ "signal", "signal", "signal", "signal" ],
					"patching_rect" : [ 196.855327963829041, 277.519108712673187, 215.5, 23.0 ],
					"rnbo_classname" : "matrix~",
					"rnbo_serial" : 1,
					"rnbo_uniqueid" : "matrix~_obj-1",
					"rnboinfo" : 					{
						"needsInstanceInfo" : 1,
						"argnames" : 						{
							"ramp" : 							{
								"attrOrProp" : 1,
								"digest" : "Ramp Time (ms)",
								"defaultarg" : 3,
								"isalias" : 0,
								"aliases" : [  ],
								"settable" : 1,
								"attachable" : 1,
								"isparam" : 0,
								"deprecated" : 0,
								"type" : "number",
								"defaultValue" : "0"
							}
,
							"inlet1" : 							{
								"attrOrProp" : 1,
								"digest" : "Input signals",
								"isalias" : 0,
								"aliases" : [  ],
								"settable" : 0,
								"attachable" : 0,
								"isparam" : 0,
								"deprecated" : 0,
								"inlet" : 1,
								"type" : "signal"
							}
,
							"inlet2" : 							{
								"attrOrProp" : 1,
								"digest" : "Input signals",
								"isalias" : 0,
								"aliases" : [  ],
								"settable" : 0,
								"attachable" : 0,
								"isparam" : 0,
								"deprecated" : 0,
								"inlet" : 1,
								"type" : "signal"
							}
,
							"inlet3" : 							{
								"attrOrProp" : 1,
								"digest" : "Input signals",
								"isalias" : 0,
								"aliases" : [  ],
								"settable" : 0,
								"attachable" : 0,
								"isparam" : 0,
								"deprecated" : 0,
								"inlet" : 1,
								"type" : "signal"
							}
,
							"out1" : 							{
								"attrOrProp" : 1,
								"digest" : "Output signals",
								"isalias" : 0,
								"aliases" : [  ],
								"settable" : 0,
								"attachable" : 0,
								"isparam" : 0,
								"deprecated" : 0,
								"outlet" : 1,
								"type" : "signal"
							}
,
							"out2" : 							{
								"attrOrProp" : 1,
								"digest" : "Output signals",
								"isalias" : 0,
								"aliases" : [  ],
								"settable" : 0,
								"attachable" : 0,
								"isparam" : 0,
								"deprecated" : 0,
								"outlet" : 1,
								"type" : "signal"
							}
,
							"out3" : 							{
								"attrOrProp" : 1,
								"digest" : "Output signals",
								"isalias" : 0,
								"aliases" : [  ],
								"settable" : 0,
								"attachable" : 0,
								"isparam" : 0,
								"deprecated" : 0,
								"outlet" : 1,
								"type" : "signal"
							}
,
							"out4" : 							{
								"attrOrProp" : 1,
								"digest" : "Output signals",
								"isalias" : 0,
								"aliases" : [  ],
								"settable" : 0,
								"attachable" : 0,
								"isparam" : 0,
								"deprecated" : 0,
								"outlet" : 1,
								"type" : "signal"
							}
,
							"incount" : 							{
								"attrOrProp" : 2,
								"digest" : "Number of inputs",
								"defaultarg" : 1,
								"isalias" : 0,
								"aliases" : [  ],
								"settable" : 1,
								"attachable" : 0,
								"isparam" : 0,
								"deprecated" : 0,
								"type" : "number",
								"defaultValue" : "1"
							}
,
							"outcount" : 							{
								"attrOrProp" : 2,
								"digest" : "Number of outputs",
								"defaultarg" : 2,
								"isalias" : 0,
								"aliases" : [  ],
								"settable" : 1,
								"attachable" : 0,
								"isparam" : 0,
								"deprecated" : 0,
								"type" : "number",
								"defaultValue" : "1"
							}

						}
,
						"inputs" : [ 							{
								"name" : "connect",
								"type" : [ "list", "signal" ],
								"digest" : "Route inputs to outlets (list) / inlet0 (signal)",
								"hot" : 1,
								"docked" : 0
							}
, 							{
								"name" : "inlet1",
								"type" : "signal",
								"digest" : "Input signals",
								"docked" : 0
							}
, 							{
								"name" : "inlet2",
								"type" : "signal",
								"digest" : "Input signals",
								"docked" : 0
							}
, 							{
								"name" : "inlet3",
								"type" : "signal",
								"digest" : "Input signals",
								"docked" : 0
							}
 ],
						"outputs" : [ 							{
								"name" : "out1",
								"type" : "signal",
								"digest" : "Output signals",
								"docked" : 0
							}
, 							{
								"name" : "out2",
								"type" : "signal",
								"digest" : "Output signals",
								"docked" : 0
							}
, 							{
								"name" : "out3",
								"type" : "signal",
								"digest" : "Output signals",
								"docked" : 0
							}
, 							{
								"name" : "out4",
								"type" : "signal",
								"digest" : "Output signals",
								"docked" : 0
							}
 ],
						"helpname" : "matrix~",
						"aliasOf" : "matrix~",
						"classname" : "matrix~",
						"operator" : 0,
						"versionId" : -362124284,
						"changesPatcherIO" : 0
					}
,
					"text" : "matrix~ 4 4"
				}

			}
 ],
		"lines" : [ 			{
				"patchline" : 				{
					"destination" : [ "obj-17", 0 ],
					"source" : [ "obj-1", 2 ]
				}

			}
, 			{
				"patchline" : 				{
					"destination" : [ "obj-19", 0 ],
					"source" : [ "obj-1", 0 ]
				}

			}
, 			{
				"patchline" : 				{
					"destination" : [ "obj-21", 0 ],
					"source" : [ "obj-1", 1 ]
				}

			}
, 			{
				"patchline" : 				{
					"destination" : [ "obj-6", 0 ],
					"source" : [ "obj-1", 3 ]
				}

			}
, 			{
				"patchline" : 				{
					"destination" : [ "obj-58", 0 ],
					"source" : [ "obj-13", 0 ]
				}

			}
, 			{
				"patchline" : 				{
					"destination" : [ "obj-4", 0 ],
					"source" : [ "obj-17", 0 ]
				}

			}
, 			{
				"patchline" : 				{
					"destination" : [ "obj-57", 0 ],
					"source" : [ "obj-19", 0 ]
				}

			}
, 			{
				"patchline" : 				{
					"destination" : [ "obj-1", 3 ],
					"source" : [ "obj-2", 0 ]
				}

			}
, 			{
				"patchline" : 				{
					"destination" : [ "obj-76", 0 ],
					"source" : [ "obj-21", 0 ]
				}

			}
, 			{
				"patchline" : 				{
					"destination" : [ "obj-1", 1 ],
					"source" : [ "obj-3", 0 ]
				}

			}
, 			{
				"patchline" : 				{
					"destination" : [ "obj-1", 0 ],
					"source" : [ "obj-56", 0 ]
				}

			}
, 			{
				"patchline" : 				{
					"destination" : [ "obj-1", 0 ],
					"source" : [ "obj-58", 0 ]
				}

			}
, 			{
				"patchline" : 				{
					"destination" : [ "obj-5", 0 ],
					"source" : [ "obj-6", 0 ]
				}

			}
, 			{
				"patchline" : 				{
					"destination" : [ "obj-1", 2 ],
					"source" : [ "obj-60", 0 ]
				}

			}
, 			{
				"patchline" : 				{
					"destination" : [ "obj-58", 1 ],
					"source" : [ "obj-61", 0 ]
				}

			}
, 			{
				"patchline" : 				{
					"destination" : [ "obj-13", 0 ],
					"order" : 1,
					"source" : [ "obj-65", 0 ]
				}

			}
, 			{
				"patchline" : 				{
					"destination" : [ "obj-61", 0 ],
					"order" : 0,
					"source" : [ "obj-65", 0 ]
				}

			}
 ],
		"default_bgcolor" : [ 0.031372549019608, 0.125490196078431, 0.211764705882353, 1.0 ],
		"color" : [ 0.929412, 0.929412, 0.352941, 1.0 ],
		"elementcolor" : [ 0.357540726661682, 0.515565991401672, 0.861786782741547, 1.0 ],
		"accentcolor" : [ 0.343034118413925, 0.506230533123016, 0.86220508813858, 1.0 ],
		"stripecolor" : [ 0.258338063955307, 0.352425158023834, 0.511919498443604, 1.0 ],
		"bgfillcolor_type" : "color",
		"bgfillcolor_color" : [ 0.031372549019608, 0.125490196078431, 0.211764705882353, 1.0 ],
		"bgfillcolor_color1" : [ 0.031372549019608, 0.125490196078431, 0.211764705882353, 1.0 ],
		"bgfillcolor_color2" : [ 0.263682, 0.004541, 0.038797, 1.0 ],
		"bgfillcolor_angle" : 270.0,
		"bgfillcolor_proportion" : 0.39,
		"bgfillcolor_autogradient" : 0.0
	}

}
